# xmcd CD database file
#
# Track frame offsets:
#	150
#	21657
#	38137
#	55357
#	75460
#	94317
#	107787
#	129087
#	147632
#	164547
#	181130
#	221410
#
# Disc length: 3187 seconds
#
# Revision: 19
# Processed by: cddbd v1.5.2PL0 Copyright (c) Steve Scherf et al.
# Submitted via: CDex 1.70beta2
#
DISCID=a80c710c
DTITLE=Garth Brooks - Double Live - Disc Two
DYEAR=1998
DGENRE=Country
TTITLE0=Ain't Goin' Down ('Til the Sun Comes up)  (Live 1998 ) - Garth Brooks
TTITLE1=Rodeo  (Live 1998 ) - Garth Brooks
TTITLE2=The Beaches of Cheyenne  (Live 1998 ) - Garth Brooks
TTITLE3=Two Pina Coladas  (Live 1998 ) - Garth Brooks
TTITLE4=Wild As The Wind (The Duet With Trisha Yearwood)  (Live 1998 ) - Garth Brooks
TTITLE5=To Make You Feel My Love  (Live 1998 ) - Garth Brooks
TTITLE6=That Summer  (Live 1998 ) - Garth Brooks
TTITLE7=American Honky Tonk Bar Association  (Live 1998 ) - Garth Brooks
TTITLE8=If Tomorrow Never Comes  (Live 1998 ) - Garth Brooks
TTITLE9=The Fever  (Live 1998 ) - Garth Brooks
TTITLE10=Friends In Low Places (The Long Version)  (Live 1998 ) - Garth Brooks
TTITLE11=The Dance  (Live 1998 ) - Garth Brooks
EXTD=YEAR: 1998
EXTT0=
EXTT1=
EXTT2=
EXTT3=
EXTT4=
EXTT5=
EXTT6=
EXTT7=
EXTT8=
EXTT9=
EXTT10=
EXTT11=
PLAYORDER=
